<?xml version="1.0" standalone="no"?>
<!DOCTYPE svg PUBLIC "-//W3C//DTD SVG 20010904//EN"
 "http://www.w3.org/TR/2001/REC-SVG-20010904/DTD/svg10.dtd">
<svg version="1.0" xmlns="http://www.w3.org/2000/svg"
 width="512.000000pt" height="512.000000pt" viewBox="0 0 512.000000 512.000000"
 preserveAspectRatio="xMidYMid meet">
<metadata>
Created by potrace 1.14, written by Peter Selinger 2001-2017
</metadata>
<g transform="translate(0.000000,512.000000) scale(0.100000,-0.100000)"
fill="#000000" stroke="none">
<path d="M1691 4869 c-146 -25 -295 -146 -370 -301 -68 -143 -76 -181 -76
-378 0 -201 12 -255 91 -417 95 -193 283 -312 492 -313 235 0 458 127 544 310
49 104 63 167 61 295 -2 245 -103 479 -280 645 -82 77 -164 123 -269 150 -83
21 -109 23 -193 9z"/>
<path d="M3232 4860 c-244 -64 -439 -286 -519 -589 -30 -112 -36 -280 -14
-371 53 -220 221 -377 453 -424 205 -42 373 3 517 140 56 52 79 83 115 157 79
162 91 216 91 417 0 141 -4 187 -18 235 -75 246 -238 412 -437 444 -86 14
-102 13 -188 -9z"/>
<path d="M385 3902 c-127 -44 -220 -128 -284 -255 -104 -208 -93 -480 29 -732
167 -347 490 -472 815 -315 137 67 251 189 298 319 31 88 35 245 8 352 -72
287 -292 539 -543 623 -95 32 -243 36 -323 8z"/>
<path d="M4405 3892 c-250 -88 -464 -337 -536 -621 -27 -107 -23 -264 8 -352
47 -130 161 -252 298 -319 325 -157 648 -32 815 315 122 252 133 524 28 733
-53 107 -124 179 -226 229 -73 36 -81 38 -191 41 -106 3 -123 0 -196 -26z"/>
<path d="M2425 3094 c-16 -2 -64 -9 -105 -15 -329 -47 -641 -215 -900 -485
-110 -115 -591 -663 -641 -731 -91 -122 -147 -253 -178 -417 -57 -293 9 -583
186 -821 103 -137 232 -241 382 -306 120 -52 221 -72 361 -72 139 0 241 20
359 72 110 47 193 104 304 208 62 57 112 94 165 120 76 38 76 38 202 38 126 0
126 0 202 -38 53 -26 103 -63 165 -120 211 -198 405 -280 663 -280 201 0 372
55 531 169 276 199 434 532 416 878 -14 260 -97 463 -275 666 -594 678 -665
752 -833 867 -195 132 -378 208 -604 249 -79 15 -341 26 -400 18z"/>
</g>
</svg>
